<mxfile host="drawio-plugin" modified="2022-06-27T19:27:44.978Z" agent="5.0 (Macintosh; Intel Mac OS X 10_15_7) AppleWebKit/537.36 (KHTML, like Gecko) Chrome/97.0.4692.45 Safari/537.36" etag="a6ryYDdxQcH0b9IO12jv" version="15.5.4" type="embed"><diagram id="23iRSUPoRavnBvh4doch" name="Page-1"><mxGraphModel dx="2030" dy="813" grid="1" gridSize="10" guides="1" tooltips="1" connect="1" arrows="1" fold="1" page="1" pageScale="1" pageWidth="827" pageHeight="1169" math="1" shadow="0"><root><mxCell id="0"/><mxCell id="1" parent="0"/><mxCell id="COyzQv1CGVzQHiNkBZlF-1" value="Judging agent 1" style="shape=umlFrame;whiteSpace=wrap;html=1;labelBackgroundColor=none;fontSize=14;fontColor=#ffffff;fillColor=#647687;strokeColor=#314354;width=110;height=30;" parent="1" vertex="1"><mxGeometry x="120" y="240" width="260" height="200" as="geometry"/></mxCell><mxCell id="COyzQv1CGVzQHiNkBZlF-10" style="edgeStyle=none;rounded=0;orthogonalLoop=1;jettySize=auto;html=1;entryX=0;entryY=0.75;entryDx=0;entryDy=0;labelBackgroundColor=#CCCCCC;fontSize=14;fontColor=#49315E;strokeColor=#8000FF;strokeWidth=2;" parent="1" source="COyzQv1CGVzQHiNkBZlF-2" target="COyzQv1CGVzQHiNkBZlF-8" edge="1"><mxGeometry relative="1" as="geometry"/></mxCell><mxCell id="COyzQv1CGVzQHiNkBZlF-11" style="edgeStyle=none;rounded=0;orthogonalLoop=1;jettySize=auto;html=1;entryX=0;entryY=0.75;entryDx=0;entryDy=0;labelBackgroundColor=#CCCCCC;fontSize=14;fontColor=#49315E;strokeColor=#8000FF;strokeWidth=2;" parent="1" source="COyzQv1CGVzQHiNkBZlF-2" target="COyzQv1CGVzQHiNkBZlF-6" edge="1"><mxGeometry relative="1" as="geometry"/></mxCell><mxCell id="COyzQv1CGVzQHiNkBZlF-2" value="\(\mathcal{B}\)" style="shape=cylinder3;whiteSpace=wrap;html=1;boundedLbl=1;backgroundOutline=1;size=5.5;labelBackgroundColor=none;fontSize=14;fontColor=#ffffff;fillColor=#647687;strokeColor=#314354;" parent="1" vertex="1"><mxGeometry x="140" y="380" width="30" height="40" as="geometry"/></mxCell><mxCell id="COyzQv1CGVzQHiNkBZlF-7" style="rounded=0;orthogonalLoop=1;jettySize=auto;html=1;exitX=1;exitY=0;exitDx=0;exitDy=12.75;exitPerimeter=0;entryX=0;entryY=0.25;entryDx=0;entryDy=0;labelBackgroundColor=#CCCCCC;fontSize=14;fontColor=#49315E;strokeColor=#49315E;strokeWidth=2;" parent="1" source="COyzQv1CGVzQHiNkBZlF-3" target="COyzQv1CGVzQHiNkBZlF-6" edge="1"><mxGeometry relative="1" as="geometry"/></mxCell><mxCell id="COyzQv1CGVzQHiNkBZlF-9" style="edgeStyle=none;rounded=0;orthogonalLoop=1;jettySize=auto;html=1;exitX=1;exitY=0;exitDx=0;exitDy=27.25;exitPerimeter=0;entryX=0;entryY=0.25;entryDx=0;entryDy=0;labelBackgroundColor=#CCCCCC;fontSize=14;fontColor=#49315E;strokeColor=#49315E;strokeWidth=2;" parent="1" source="COyzQv1CGVzQHiNkBZlF-3" target="COyzQv1CGVzQHiNkBZlF-8" edge="1"><mxGeometry relative="1" as="geometry"/></mxCell><mxCell id="COyzQv1CGVzQHiNkBZlF-3" value="\(\mathcal{A}\)" style="shape=cylinder3;whiteSpace=wrap;html=1;boundedLbl=1;backgroundOutline=1;size=5.5;labelBackgroundColor=none;fontSize=14;fontColor=#ffffff;fillColor=#647687;strokeColor=#314354;" parent="1" vertex="1"><mxGeometry x="140" y="300" width="30" height="40" as="geometry"/></mxCell><mxCell id="COyzQv1CGVzQHiNkBZlF-4" value="Observations \(\in \mathbb{R}^g\)" style="endArrow=classic;html=1;rounded=1;labelBackgroundColor=#CCCCCC;fontSize=14;fontColor=#8000FF;strokeColor=#8000FF;strokeWidth=2;entryX=0;entryY=0.5;entryDx=0;entryDy=0;entryPerimeter=0;" parent="1" target="COyzQv1CGVzQHiNkBZlF-2" edge="1"><mxGeometry x="-0.4" y="-20" width="50" height="50" relative="1" as="geometry"><mxPoint x="40" y="400" as="sourcePoint"/><mxPoint x="80" y="460" as="targetPoint"/><mxPoint as="offset"/></mxGeometry></mxCell><mxCell id="COyzQv1CGVzQHiNkBZlF-5" value="Actions \(\in \mathbb{R}^d\)" style="endArrow=classic;html=1;rounded=1;labelBackgroundColor=#CCCCCC;fontSize=14;fontColor=#49315E;strokeColor=#49315E;strokeWidth=2;entryX=0;entryY=0.5;entryDx=0;entryDy=0;entryPerimeter=0;" parent="1" target="COyzQv1CGVzQHiNkBZlF-3" edge="1"><mxGeometry x="-0.2" y="20" width="50" height="50" relative="1" as="geometry"><mxPoint x="40" y="320" as="sourcePoint"/><mxPoint x="100" y="150" as="targetPoint"/><mxPoint as="offset"/></mxGeometry></mxCell><mxCell id="COyzQv1CGVzQHiNkBZlF-14" style="edgeStyle=none;rounded=0;orthogonalLoop=1;jettySize=auto;html=1;entryX=0;entryY=0.25;entryDx=0;entryDy=0;labelBackgroundColor=#CCCCCC;fontSize=14;fontColor=#49315E;strokeColor=#314354;strokeWidth=2;fillColor=#647687;" parent="1" source="COyzQv1CGVzQHiNkBZlF-6" target="COyzQv1CGVzQHiNkBZlF-13" edge="1"><mxGeometry relative="1" as="geometry"/></mxCell><mxCell id="COyzQv1CGVzQHiNkBZlF-6" value="\(\texttt{ME}(\mathcal{B}, a_1)\)" style="rounded=0;whiteSpace=wrap;html=1;labelBackgroundColor=none;fontSize=14;fontColor=#ffffff;fillColor=#647687;strokeColor=#314354;" parent="1" vertex="1"><mxGeometry x="200" y="280" width="80" height="30" as="geometry"/></mxCell><mxCell id="COyzQv1CGVzQHiNkBZlF-15" style="edgeStyle=none;rounded=0;orthogonalLoop=1;jettySize=auto;html=1;entryX=0;entryY=0.75;entryDx=0;entryDy=0;labelBackgroundColor=#CCCCCC;fontSize=14;fontColor=#49315E;strokeColor=#314354;strokeWidth=2;fillColor=#647687;" parent="1" source="COyzQv1CGVzQHiNkBZlF-8" target="COyzQv1CGVzQHiNkBZlF-13" edge="1"><mxGeometry relative="1" as="geometry"/></mxCell><mxCell id="COyzQv1CGVzQHiNkBZlF-8" value="\(\texttt{ME}(\mathcal{B}, a_d)\)" style="rounded=0;whiteSpace=wrap;html=1;labelBackgroundColor=none;fontSize=14;fontColor=#ffffff;fillColor=#647687;strokeColor=#314354;" parent="1" vertex="1"><mxGeometry x="200" y="325" width="80" height="30" as="geometry"/></mxCell><mxCell id="COyzQv1CGVzQHiNkBZlF-12" value="..." style="text;html=1;strokeColor=none;fillColor=none;align=center;verticalAlign=middle;whiteSpace=wrap;rounded=0;labelBackgroundColor=none;fontSize=14;fontColor=#49315E;" parent="1" vertex="1"><mxGeometry x="210" y="310" width="60" height="10" as="geometry"/></mxCell><mxCell id="COyzQv1CGVzQHiNkBZlF-16" value="" style="edgeStyle=none;rounded=0;orthogonalLoop=1;jettySize=auto;html=1;labelBackgroundColor=#CCCCCC;fontSize=14;fontColor=#647687;strokeColor=#314354;strokeWidth=2;fillColor=#647687;entryX=0;entryY=0.25;entryDx=0;entryDy=0;" parent="1" source="COyzQv1CGVzQHiNkBZlF-13" target="3" edge="1"><mxGeometry x="-0.0445" y="23" relative="1" as="geometry"><mxPoint x="470" y="320" as="targetPoint"/><mxPoint as="offset"/></mxGeometry></mxCell><mxCell id="COyzQv1CGVzQHiNkBZlF-13" value="\(\texttt{Judgment}_1(l)\)" style="rounded=0;whiteSpace=wrap;html=1;labelBackgroundColor=none;fontSize=14;fontColor=#ffffff;fillColor=#647687;strokeColor=#314354;horizontal=0;" parent="1" vertex="1"><mxGeometry x="320" y="260" width="40" height="120" as="geometry"/></mxCell><mxCell id="COyzQv1CGVzQHiNkBZlF-17" value="Judging agent j" style="shape=umlFrame;whiteSpace=wrap;html=1;labelBackgroundColor=none;fontSize=14;fontColor=#ffffff;fillColor=#647687;strokeColor=#314354;width=110;height=30;" parent="1" vertex="1"><mxGeometry x="120" y="485" width="260" height="200" as="geometry"/></mxCell><mxCell id="COyzQv1CGVzQHiNkBZlF-18" style="edgeStyle=none;rounded=0;orthogonalLoop=1;jettySize=auto;html=1;entryX=0;entryY=0.75;entryDx=0;entryDy=0;labelBackgroundColor=#CCCCCC;fontSize=14;fontColor=#49315E;strokeColor=#8000FF;strokeWidth=2;" parent="1" source="COyzQv1CGVzQHiNkBZlF-20" target="COyzQv1CGVzQHiNkBZlF-29" edge="1"><mxGeometry relative="1" as="geometry"/></mxCell><mxCell id="COyzQv1CGVzQHiNkBZlF-19" style="edgeStyle=none;rounded=0;orthogonalLoop=1;jettySize=auto;html=1;entryX=0;entryY=0.75;entryDx=0;entryDy=0;labelBackgroundColor=#CCCCCC;fontSize=14;fontColor=#49315E;strokeColor=#8000FF;strokeWidth=2;" parent="1" source="COyzQv1CGVzQHiNkBZlF-20" target="COyzQv1CGVzQHiNkBZlF-27" edge="1"><mxGeometry relative="1" as="geometry"/></mxCell><mxCell id="COyzQv1CGVzQHiNkBZlF-20" value="\(\mathcal{B}\)" style="shape=cylinder3;whiteSpace=wrap;html=1;boundedLbl=1;backgroundOutline=1;size=5.5;labelBackgroundColor=none;fontSize=14;fontColor=#ffffff;fillColor=#647687;strokeColor=#314354;" parent="1" vertex="1"><mxGeometry x="140" y="625" width="30" height="40" as="geometry"/></mxCell><mxCell id="COyzQv1CGVzQHiNkBZlF-21" style="rounded=0;orthogonalLoop=1;jettySize=auto;html=1;exitX=1;exitY=0;exitDx=0;exitDy=12.75;exitPerimeter=0;entryX=0;entryY=0.25;entryDx=0;entryDy=0;labelBackgroundColor=#CCCCCC;fontSize=14;fontColor=#49315E;strokeColor=#49315E;strokeWidth=2;" parent="1" source="COyzQv1CGVzQHiNkBZlF-23" target="COyzQv1CGVzQHiNkBZlF-27" edge="1"><mxGeometry relative="1" as="geometry"/></mxCell><mxCell id="COyzQv1CGVzQHiNkBZlF-22" style="edgeStyle=none;rounded=0;orthogonalLoop=1;jettySize=auto;html=1;exitX=1;exitY=0;exitDx=0;exitDy=27.25;exitPerimeter=0;entryX=0;entryY=0.25;entryDx=0;entryDy=0;labelBackgroundColor=#CCCCCC;fontSize=14;fontColor=#49315E;strokeColor=#49315E;strokeWidth=2;" parent="1" source="COyzQv1CGVzQHiNkBZlF-23" target="COyzQv1CGVzQHiNkBZlF-29" edge="1"><mxGeometry relative="1" as="geometry"/></mxCell><mxCell id="COyzQv1CGVzQHiNkBZlF-23" value="\(\mathcal{A}\)" style="shape=cylinder3;whiteSpace=wrap;html=1;boundedLbl=1;backgroundOutline=1;size=5.5;labelBackgroundColor=none;fontSize=14;fontColor=#ffffff;fillColor=#647687;strokeColor=#314354;" parent="1" vertex="1"><mxGeometry x="140" y="545" width="30" height="40" as="geometry"/></mxCell><mxCell id="COyzQv1CGVzQHiNkBZlF-24" value="" style="endArrow=classic;html=1;rounded=1;labelBackgroundColor=#CCCCCC;fontSize=14;fontColor=#8000FF;strokeColor=#8000FF;strokeWidth=2;entryX=0;entryY=0.5;entryDx=0;entryDy=0;entryPerimeter=0;" parent="1" target="COyzQv1CGVzQHiNkBZlF-20" edge="1"><mxGeometry x="-0.4" y="-20" width="50" height="50" relative="1" as="geometry"><mxPoint x="40" y="645" as="sourcePoint"/><mxPoint x="80" y="705" as="targetPoint"/><mxPoint as="offset"/></mxGeometry></mxCell><mxCell id="COyzQv1CGVzQHiNkBZlF-25" value="" style="endArrow=classic;html=1;rounded=1;labelBackgroundColor=#CCCCCC;fontSize=14;fontColor=#49315E;strokeColor=#49315E;strokeWidth=2;entryX=0;entryY=0.5;entryDx=0;entryDy=0;entryPerimeter=0;" parent="1" target="COyzQv1CGVzQHiNkBZlF-23" edge="1"><mxGeometry x="-0.2" y="20" width="50" height="50" relative="1" as="geometry"><mxPoint x="40" y="565" as="sourcePoint"/><mxPoint x="100" y="395" as="targetPoint"/><mxPoint as="offset"/></mxGeometry></mxCell><mxCell id="COyzQv1CGVzQHiNkBZlF-26" style="edgeStyle=none;rounded=0;orthogonalLoop=1;jettySize=auto;html=1;entryX=0;entryY=0.25;entryDx=0;entryDy=0;labelBackgroundColor=#CCCCCC;fontSize=14;fontColor=#49315E;strokeColor=#314354;strokeWidth=2;fillColor=#647687;" parent="1" source="COyzQv1CGVzQHiNkBZlF-27" target="COyzQv1CGVzQHiNkBZlF-31" edge="1"><mxGeometry relative="1" as="geometry"/></mxCell><mxCell id="COyzQv1CGVzQHiNkBZlF-27" value="\(\texttt{ME}(\mathcal{B}, a_1)\)" style="rounded=0;whiteSpace=wrap;html=1;labelBackgroundColor=none;fontSize=14;fontColor=#ffffff;fillColor=#647687;strokeColor=#314354;" parent="1" vertex="1"><mxGeometry x="200" y="525" width="80" height="30" as="geometry"/></mxCell><mxCell id="COyzQv1CGVzQHiNkBZlF-28" style="edgeStyle=none;rounded=0;orthogonalLoop=1;jettySize=auto;html=1;entryX=0;entryY=0.75;entryDx=0;entryDy=0;labelBackgroundColor=#CCCCCC;fontSize=14;fontColor=#49315E;strokeColor=#314354;strokeWidth=2;fillColor=#647687;" parent="1" source="COyzQv1CGVzQHiNkBZlF-29" target="COyzQv1CGVzQHiNkBZlF-31" edge="1"><mxGeometry relative="1" as="geometry"/></mxCell><mxCell id="COyzQv1CGVzQHiNkBZlF-29" value="\(\texttt{ME}(\mathcal{B}, a_d)\)" style="rounded=0;whiteSpace=wrap;html=1;labelBackgroundColor=none;fontSize=14;fontColor=#ffffff;fillColor=#647687;strokeColor=#314354;" parent="1" vertex="1"><mxGeometry x="200" y="570" width="80" height="30" as="geometry"/></mxCell><mxCell id="COyzQv1CGVzQHiNkBZlF-30" value="..." style="text;html=1;strokeColor=none;fillColor=none;align=center;verticalAlign=middle;whiteSpace=wrap;rounded=0;labelBackgroundColor=none;fontSize=14;fontColor=#49315E;" parent="1" vertex="1"><mxGeometry x="210" y="555" width="60" height="10" as="geometry"/></mxCell><mxCell id="COyzQv1CGVzQHiNkBZlF-32" value="" style="edgeStyle=none;rounded=0;orthogonalLoop=1;jettySize=auto;html=1;labelBackgroundColor=#CCCCCC;fontSize=14;fontColor=#647687;strokeColor=#314354;strokeWidth=2;fillColor=#647687;entryX=0;entryY=0.75;entryDx=0;entryDy=0;" parent="1" source="COyzQv1CGVzQHiNkBZlF-31" target="3" edge="1"><mxGeometry x="-0.0352" y="-22" relative="1" as="geometry"><mxPoint x="480" y="565" as="targetPoint"/><mxPoint as="offset"/></mxGeometry></mxCell><mxCell id="COyzQv1CGVzQHiNkBZlF-31" value="\(\texttt{Judgment}_j(l)\)" style="rounded=0;whiteSpace=wrap;html=1;labelBackgroundColor=none;fontSize=14;fontColor=#ffffff;fillColor=#647687;strokeColor=#314354;horizontal=0;" parent="1" vertex="1"><mxGeometry x="320" y="510" width="40" height="110" as="geometry"/></mxCell><mxCell id="COyzQv1CGVzQHiNkBZlF-34" value="\(r_l\)" style="edgeStyle=none;rounded=0;orthogonalLoop=1;jettySize=auto;html=1;labelBackgroundColor=#CCCCCC;fontSize=14;fontColor=#0080FF;strokeColor=#0080FF;strokeWidth=2;fillColor=#1ba1e2;" parent="1" source="COyzQv1CGVzQHiNkBZlF-33" edge="1"><mxGeometry y="20" relative="1" as="geometry"><mxPoint x="570" y="440" as="targetPoint"/><mxPoint as="offset"/></mxGeometry></mxCell><mxCell id="COyzQv1CGVzQHiNkBZlF-33" value="Average" style="rounded=0;whiteSpace=wrap;html=1;labelBackgroundColor=none;fontSize=14;fontColor=#ffffff;direction=south;horizontal=0;fillColor=#647687;strokeColor=#314354;" parent="1" vertex="1"><mxGeometry x="480" y="395" width="30" height="90" as="geometry"/></mxCell><mxCell id="4" style="edgeStyle=orthogonalEdgeStyle;rounded=0;orthogonalLoop=1;jettySize=auto;html=1;entryX=0.5;entryY=1;entryDx=0;entryDy=0;strokeColor=#0080FF;strokeWidth=2;" edge="1" parent="1" source="3" target="COyzQv1CGVzQHiNkBZlF-33"><mxGeometry relative="1" as="geometry"/></mxCell><mxCell id="3" value="\(\texttt{F}(l)\)" style="rounded=0;whiteSpace=wrap;html=1;fillColor=#647687;fontColor=#ffffff;strokeColor=#314354;fontSize=14;" vertex="1" parent="1"><mxGeometry x="400" y="415" width="50" height="50" as="geometry"/></mxCell></root></mxGraphModel></diagram></mxfile>